<?xml version="1.0" encoding="utf-8"?>
<!-- Generator: Adobe Illustrator 22.0.1, SVG Export Plug-In . SVG Version: 6.00 Build 0)  -->
<svg version="1.1" id="Livello_1" xmlns="http://www.w3.org/2000/svg" xmlns:xlink="http://www.w3.org/1999/xlink" x="0px" y="0px"
	 viewBox="0 0 240 48" style="enable-background:new 0 0 240 48;" xml:space="preserve">
<style type="text/css">
	.st0{fill:#28292B;}
</style>
<path class="st0" d="M188.7,32.7c-1,0-2,0.9-2,2s0.9,2,2,2c1,0,2-0.9,2-2C190.7,33.5,189.8,32.7,188.7,32.7 M188.7,36.3
	c-0.9,0-1.6-0.8-1.6-1.6c0-0.9,0.8-1.6,1.6-1.6c0.9,0,1.6,0.8,1.6,1.6S189.7,36.3,188.7,36.3"/>
<path class="st0" d="M189.4,34.8L189.4,34.8c0.2-0.2,0.3-0.3,0.3-0.7c0-0.5-0.5-0.7-0.8-0.7h-1v2.4h0.3v-0.9h0.7
	c0.5-0.1,0.5,0.5,0.5,0.7c0,0.1,0.1,0.2,0.1,0.3h0.3c-0.1-0.1-0.1-0.2-0.1-0.6C189.7,35.1,189.5,34.8,189.4,34.8 M189,34.5h-0.8
	v-0.7h0.8c0.2,0,0.5,0.1,0.5,0.3C189.4,34.5,189.1,34.5,189,34.5"/>
<path class="st0" d="M88.2,45.6h-3.1c-0.1,0-0.2-0.1-0.1-0.2c0.1-0.1,2-1.6,2-1.6h8.3c0,0,0.2,1.2,0.1,1.4c-0.1,0.2-0.3,0.3-0.7,0.3
	h-3.1c-0.1,0-0.2,0.2-0.2,0.2l-0.7,2.1h1.4h13.1h0.1h0.3l0,0h3.1c0,0,1.4-0.9,1.6-1c1.3,0.5,2.6,0.8,3.8,1l0,0l0,0
	c4.8,0.5,9.1,0.2,12.9-0.7c1-0.2,2.7-0.9,3.8-1.9l-1.5,2.6h3.6c0,0,1.4-0.9,1.6-1c1.3,0.5,2.6,0.8,3.8,1l0,0l0,0
	c4.8,0.5,9.1,0.2,12.9-0.7c1.4-0.3,3.6-1.3,4.7-2.8c0.1-0.1,0.1-0.2,0.2-0.3l0,0l0,0c0.1-0.2,0.2-0.3,0.2-0.5c0,0.3,0.1,0.7,0.2,0.9
	c0.5,1.3,1.9,2.1,3.7,2.7c3.1,0.9,7.3,1.2,12,0.7c1.4-0.1,2.8-0.3,4.3-0.6l0,0c3.7-0.8,6.4-1.9,8.3-3.5c0.7-0.5,1.2-1,1.5-1.6
	c0.5-0.8,0.8-1.5,0.8-2.3c0.1-0.8-0.2-1.5-0.7-2.1c-1.5-1.6-4.3-2.2-6.6-2.4l0,0c-5.1-0.5-9.9-0.2-14.5,0.9
	c-3.6,0.8-6.4,2.4-7.9,4.3c-0.1,0.1-0.2,0.2-0.2,0.3c-0.1,0.2-0.2,0.5-0.3,0.7l0,0l0,0l0,0l0,0c-0.2,0.3-0.3,0.7-0.3,1
	c0-0.1-0.1-0.2-0.1-0.3c-0.2-0.7-0.8-1.2-1.6-1.5c-2.1-0.8-5-1-7.7-1.4c-1.2-0.1-5.2-0.5-5.4-0.9c0,0,0,0,0-0.1c0,0,0-0.1,0.1-0.1
	c0.2-0.5,1-0.8,1.9-0.9c3.6-0.8,7.1-0.3,8.9,0.5c1,0.6,1,1,1.2,1.4V40h3.6l2.7-4.9h-3.6c-0.2,0.1-1,0.7-1.2,0.7
	c-1.9-0.6-3.7-0.8-5.8-0.9l0,0c-3.3-0.1-7.1,0-10.8,0.9c-0.8,0.2-3.1,0.8-4.2,2.4c0,0.1-0.7,1-0.3,2c0.3,0.9,1.6,1.4,1.6,1.4
	c0.1,0.1,0.2,0.1,0.3,0.1c2,0.7,4.5,0.9,7,1c1,0.1,4.9,0.5,5.5,0.8c0.3,0.2,0.2,0.2,0.2,0.3c-0.9,1-1.4,1.4-4.4,1.6
	c-3.1,0.2-6.9-0.5-8.2-1.7l0,0l0,0c-0.2-0.2-0.3-1.6-0.3-1.6h-3.5l-0.2,0.1l-0.1,0.3c0-0.2-0.1-0.5-0.1-0.6
	c-0.2-0.7-0.8-1.2-1.6-1.5c-2.1-0.8-5-1-7.7-1.4c-1.2-0.1-5.2-0.5-5.4-0.9c0,0,0,0,0-0.1c0,0,0-0.1,0.1-0.1c0.2-0.5,1-0.8,1.9-0.9
	c3.6-0.8,7.1-0.3,8.9,0.5c1,0.6,1,1,1.2,1.4v0.8h3.6l2.7-5.1h-3.6c-0.2,0.1-1,0.7-1.2,0.7c-1.9-0.6-3.7-0.8-5.8-0.9l0,0
	c-3.3-0.1-7.1,0-10.8,0.9c-0.8,0.2-3.1,0.8-4.2,2.4c0,0.1-0.7,1-0.3,2c0.1,0.8,1.4,1.3,1.4,1.3c0.1,0.1,0.2,0.1,0.3,0.1
	c2,0.7,4.5,0.9,7,1c1,0.1,4.9,0.5,5.5,0.8c0.3,0.2,0.2,0.2,0.2,0.3c-0.9,1-1.4,1.4-4.4,1.6c-3.1,0.2-6.9-0.5-8.2-1.7l0,0l0,0
	c-0.2-0.2-0.3-1.6-0.3-1.6h-3.5l-0.2,0.1l-1.9,3.4v-0.1l-0.1-0.2h-1.6c-1-0.1-1.2-0.7-1.3-0.8l-1.6-9.7h-8l-6.4,4.7l-5.7,5.5
	c-0.6,0.3-1.3,0.9-2.1,1c-0.8,0.2-1.3,0.1-1.3,0.1c0.6-0.5,1.2-1.3,1.3-2c0.1-0.3,0-0.7-0.2-1v-0.1l0,0C78,41.6,76.5,41.2,75,41
	c0.7-0.1,1.3-0.2,1.9-0.3c1.4-0.3,3.3-0.9,4.1-2.1l0,0c0.2-0.5,0.2-0.9,0.2-1.2c-0.1-0.5-0.3-0.8-0.9-1l0,0l0,0c-2-1-5.1-1-8.2-1
	H56.4c-0.1,0-0.3,0.1-0.3,0.2C56,35.7,55.4,37,55.4,37c0,0.1,0.2,0.5,0.3,0.5h3.1c0,0-4.2,7.6-4.4,7.8c-0.7,0.7-1.9,0.7-3,0.7h-1.1
	c-0.1,0-0.2,0.1-0.3,0.1c-0.1,0-0.7,1.1-0.7,1.1c0,0.1,0.1,0.6,0.2,0.6h16.1c2.1,0,5.1-0.1,6.3-0.2c1.2-0.1,2.7-0.5,3.7-0.8
	c0,0-0.2,0.3-0.2,0.5c0,0.1,0.1,0.5,0.2,0.5h4.7h6.3h0.8l1-2C88.5,45.7,88.5,45.6,88.2,45.6 M70.8,43.7L70.8,43.7
	c-0.1,0.1-0.1,0.1-0.1,0.2c-0.3,0.5-1,0.9-1.9,1.3c-1.9,0.6-3.8,0.5-5.8,0.5c-0.3,0-0.7,0-0.9,0c0.6-0.9,1.7-2.9,2-3.3
	c0.2,0,1.5,0,1.5,0c1.9,0,3.6,0,4.9,0.5c0.2,0.1,0.3,0.2,0.5,0.3C70.9,43.3,70.9,43.5,70.8,43.7 M72.7,38.4
	c-0.1,0.1-0.2,0.2-0.2,0.3C71.2,40,68.8,40,66.8,40c0,0-0.9,0-1.6,0c0.6-0.9,1.6-2.8,1.6-2.8h2.9c1.2,0,3,0.1,3.1,0.5
	C73.1,37.9,73,38.2,72.7,38.4 M89.8,41.7l4.5-3.4l0.6,3.4H89.8z M178.1,41.8l-0.1,0.1c0,0,0,0.1-0.1,0.1c-0.9,1.5-3,3.1-5.8,3.6
	c-2.2,0.3-5,0.3-6.2-0.3c-0.3-0.2-0.6-0.6-0.7-0.9c-0.1-0.8,0.2-2,1.3-3.5c0.9-1.3,2.4-2.9,5-3.5c3-0.7,6.3-0.5,7.2,0.5
	C179.8,38.9,178.9,40.5,178.1,41.8"/>
<path class="st0" d="M112.6,9.1l0.9-3.5L112,4.2c-1,0.5-2,1-3.1,1.6L112.6,9.1z"/>
<path class="st0" d="M142.2,13.5C141.6,13,129,3.2,126.4,1.1s-7.6-0.8-9.2,0.1c-0.9,0.5-6.4,3.6-11.5,6.5l6.1,5.1l0,0h9.9
	c1.2,0,2.3-0.7,2.3-1.9c0-1.4-1-2-2.3-2h-9.1l0.9-3.5c0,0,8.9,0,9,0c1.7,0,5.5,0.8,5.5,4.7s-2.7,4.9-2.7,4.9s2,2.8,0.5,5.4
	s-4.2,3.3-5.4,3.3h-11.8l0.9-3.5h9.7c1.7,0,2.8-0.8,2.8-2c0-1.3-1.3-1.9-2.6-1.9h-8.9l0,0l-8.2-7.1c-3.3,1.9-5.9,3.3-6.8,3.7
	c-2.2,1.3-1.3,2.3-0.3,3c0.9,0.7,9.8,8.2,13.9,11.4s8.9,1.4,10.6,0.5s18.5-10.5,21-11.8C143.3,14.9,142.9,14.1,142.2,13.5z"/>
<path class="st0" d="M96,13l12.6,10.7l0.9-3.5l0,0L99,11.3C97.7,12.1,96.6,12.7,96,13"/>
<path class="st0" d="M102.6,9.4c-1.3,0.7-2.4,1.4-3.5,2l10.5,8.9h9.7c1.7,0,2.8-0.8,2.8-2c0-1.3-1.3-1.9-2.6-1.9h-8.9l0,0L102.6,9.4
	z"/>
<path class="st0" d="M108.9,5.8c-1,0.6-2.2,1.3-3.3,1.9l6.1,5.1l0,0h9.9c1.2,0,2.3-0.7,2.3-1.9c0-1.4-1-2-2.3-2h-9.1l0.9-3.5
	l-0.9,3.5L108.9,5.8z"/>
</svg>
