<?xml version="1.0" encoding="utf-8"?>
<!-- Generator: Adobe Illustrator 22.0.1, SVG Export Plug-In . SVG Version: 6.00 Build 0)  -->
<svg version="1.1" id="Livello_1" xmlns="http://www.w3.org/2000/svg" xmlns:xlink="http://www.w3.org/1999/xlink" x="0px" y="0px"
	 viewBox="0 0 240 22.1" style="enable-background:new 0 0 240 22.1;" xml:space="preserve">
<style type="text/css">
	.st0{fill:#28292B;}
</style>
<path class="st0" d="M28.5,6.1l-0.6,3.3h-8.5c-3.2,0-5.4,1.4-5.9,3.7l-0.4,2.8c-0.3,2.2,1.6,2.8,4.2,2.8h9.2L26.1,22H14.3
	c-5.5,0-8.7-1-7.9-6l0.7-4.2C8,7.3,11.8,6,19.1,6C19.2,6.1,28.5,6.1,28.5,6.1z"/>
<path class="st0" d="M44.3,15.6l-0.7,3.2h-7.5c-1.2,0-2.2-0.3-2.1-1.1c0-0.1,0.2-0.8,0.2-0.9c0.2-0.8,1.2-1.2,2.5-1.2L44.3,15.6
	L44.3,15.6z M30.9,6.1l-0.7,3.4h11.3c1.8,0,4,0.8,3.5,2.3l-0.2,0.8H34.4c-3.6,0-5.5,0.5-6,3.2L28,18.3c-0.5,3.2,2,3.8,5.3,3.8h16.1
	l1.7-9.1c0.4-2.2,0.4-3.9-1.3-5.3c-2-1.6-7.5-1.6-7.5-1.6H30.9L30.9,6.1z"/>
<path class="st0" d="M194,15.6l-0.7,3.2h-7.5c-1.3,0-2.2-0.3-2.1-1.1c0-0.1,0.2-0.8,0.2-0.9c0.2-0.8,1.2-1.2,2.5-1.2L194,15.6
	L194,15.6z M180.6,6.1l-0.7,3.4h11.3c1.8,0,4,0.8,3.5,2.3l-0.2,0.8H184c-3.6,0-5.5,0.5-6,3.2l-0.4,2.5c-0.5,3.2,2,3.8,5.3,3.8h16.2
	l1.6-9.1c0.4-2.2,0.4-3.9-1.3-5.3c-1.9-1.6-7.4-1.5-7.4-1.5L180.6,6.1L180.6,6.1z"/>
<path class="st0" d="M66.7,6.1c3.5,0,6.5-0.1,8.2,1.8c1,1.1,1.2,1.9,1,3.3L74,22.1h-6.5l1.8-10.6c0.2-0.9-0.9-1.9-2.9-1.9h-6.3
	L57.9,22h-6.4l2.9-16L66.7,6.1L66.7,6.1z"/>
<path class="st0" d="M91.3,6.1c3.5,0,6.5-0.1,8.2,1.8c1,1.1,1.2,1.9,1,3.3l-1.9,10.9h-6.5L94,11.5c0.2-0.9-0.9-1.9-2.9-1.9h-6.3
	L82.4,22h-6.5l2.9-16L91.3,6.1L91.3,6.1z"/>
<path class="st0" d="M142.8,6.1c3.5,0,6.5-0.1,8.2,1.8c1,1.1,1.2,1.9,1,3.3l-1.9,10.9h-6.5l1.9-10.6c0.2-0.9-0.9-1.9-2.9-1.9h-6.3
	L134,22h-6.5l2.9-16L142.8,6.1L142.8,6.1z"/>
<path class="st0" d="M115.4,9.4c3.8,0,6,0.3,5.6,2.9l-0.7,3.7c-0.5,2.5-3,2.7-6.7,2.7c-3.1,0.1-6.3-0.3-5.9-2.8l0.7-3.8
	C108.9,9.6,111.8,9.4,115.4,9.4 M102.5,11.5l-1.1,5.5c-0.6,4.4,5,5.2,11.6,5.1c6.8-0.1,12.1-0.1,13.3-5.1l1.1-5.1
	c0.8-5.2-3.8-6-11.3-6C109.8,5.8,103.5,6.2,102.5,11.5"/>
<path class="st0" d="M169.5,18.5H164c-3.2,0-5-0.7-4.5-3.5l0.4-2.3c0.6-2.2,2.7-3.3,5.8-3.3h5.5L169.5,18.5z M178.7,0.1h-5.8l-0.9,6
	h-7.6c-5.5,0-9.5,1.4-10.4,5.6l-0.9,5.3c-0.6,4.1,2.6,5.2,8.1,5.2h13.9L178.7,0.1z"/>
<polygon class="st0" points="204.9,0 211.4,0 207.6,22.1 201.2,22.1 "/>
<path class="st0" d="M233.6,11.7c0,0,1.5-5.7-5.4-5.7h-6.3c-4.8,0-9.6,1.2-10.4,5.8l-0.8,4.2c-0.9,5.2,3.1,6,8,6h13l0.6-3.2h-12.4
	c-2.1,0-2.9-1.6-2.6-2.9h15.6L233.6,11.7z M221.3,9.4h3.5c4.2,0,2.6,3.2,2.6,3.2h-9.7C218.1,11,219.1,9.4,221.3,9.4"/>
<path class="st0" d="M180.5,2.7c0.2-0.8,0.9-1.4,1.7-1.4s1.3,0.6,1.2,1.4s-0.9,1.5-1.7,1.5C180.8,4.2,180.3,3.6,180.5,2.7
	 M181.6,4.5c0.9,0,1.9-0.7,2.1-1.8c0.2-1-0.6-1.8-1.5-1.8c-1,0-1.9,0.7-2.1,1.8C180,3.7,180.6,4.5,181.6,4.5 M181.5,2.9h0.3l0.4,0.9
	h0.3l-0.4-0.9c0.3-0.1,0.6-0.2,0.6-0.6c0.1-0.4-0.2-0.6-0.6-0.6h-0.8L181,3.8h0.3L181.5,2.9z M181.6,2.6l0.1-0.6h0.4
	c0.2,0,0.4,0.1,0.4,0.3c-0.1,0.3-0.3,0.3-0.6,0.3H181.6z"/>
</svg>
