<?xml version="1.0" encoding="utf-8"?>
<!-- Generator: Adobe Illustrator 22.0.1, SVG Export Plug-In . SVG Version: 6.00 Build 0)  -->
<svg version="1.1" id="Livello_1" xmlns="http://www.w3.org/2000/svg" xmlns:xlink="http://www.w3.org/1999/xlink" x="0px" y="0px"
	 viewBox="0 0 240 26.4" style="enable-background:new 0 0 240 26.4;" xml:space="preserve">
<style type="text/css">
	.st0{fill:#28292B;}
</style>
<g>
	<path class="st0" d="M30.2,0c-5.4,0-6.3,4.5-1.8,10l7.7,9.3c2.8,3.4,5.3,6,6.4,6.9h0.1h7.8c-2.7-1.7-5.9-4.8-8.2-7.5L33.5,8.3
		C31.6,6,32,4.8,34.1,5.1c1.1,0.1,4,1.6,7.3,4.6h6.7C42.8,3.8,36.8,0,30.2,0"/>
	<path class="st0" d="M53.2,26.4h5.3c-0.3-2-1.2-4.4-3-6.7h-5.9C51.8,22.3,52.7,24.3,53.2,26.4"/>
	<polyline class="st0" points="142.8,19.3 134.2,0.6 128.9,0.6 135.3,13.4 135.1,13.4 118,0.6 110.5,0.6 137.2,20.3 142.3,26.4 
		148.8,26.4 142.8,19.3 	"/>
	<polyline class="st0" points="95.3,0.6 116.3,25.1 116.1,25.1 85.6,0.6 79.4,0.6 100.9,26.2 107.1,26.2 94.5,12.3 94.7,12.3 
		112.1,26.4 122.8,26.4 101.1,0.6 95.3,0.6 	"/>
	<polyline class="st0" points="187,0.6 208,25.1 207.8,25.1 177.3,0.6 171.1,0.6 192.6,26.2 198.8,26.2 186.4,12.3 186.4,12.3 
		203.8,26.4 214.5,26.4 192.8,0.6 187,0.6 	"/>
	<polyline class="st0" points="55.7,0.6 68.9,26.2 74.4,26.2 64.4,7.5 64.5,7.5 83.9,26.4 90.8,26.4 63.8,0.6 55.7,0.6 	"/>
	<path class="st0" d="M162.1,18.7c2.3,2.7,5.6,5.8,8.2,7.5h-7.8h-0.1c-1.1-0.9-3.7-3.5-6.4-6.9l-7.7-9.3c-4.6-5.5-3.7-10,1.8-10
		c7.1,0,13.6,4.4,19.1,11.1l3.9,4.8c3.7,4.6,4.9,7.4,5.5,10.5h-5.1c-0.5-2.1-1.4-4.1-3.5-6.7l-5.6-6.8c-4.3-5.2-9-7.6-10.4-7.8
		c-2.1-0.3-2.5,0.9-0.6,3.2L162.1,18.7"/>
</g>
</svg>
