<?xml version="1.0" encoding="utf-8"?>
<!-- Generator: Adobe Illustrator 22.0.1, SVG Export Plug-In . SVG Version: 6.00 Build 0)  -->
<svg version="1.1" id="Livello_1" xmlns="http://www.w3.org/2000/svg" xmlns:xlink="http://www.w3.org/1999/xlink" x="0px" y="0px"
	 viewBox="0 0 240 27.5" style="enable-background:new 0 0 240 27.5;" xml:space="preserve">
<style type="text/css">
	.st0{fill:#28292B;}
</style>
<g>
	<path class="st0" d="M182.7,3.6h-9.6l-7.2,23.2h10.8l7-23.2C183.7,3.6,182.7,3.6,182.7,3.6z M98.4,8.7h-9.3l-6.5,18.1h9.9
		c0,0,3.6-9.2,3.8-9.5c0.4-0.3,1.5-1.1,2.7-1.9c1.4-0.9,2.6-1.2,3.2-1.1c0,0.3,0,0.7,0,1.1c0,0.4,0,0.8,0.1,1.1c0.2,1,1,2.7,3.7,2.7
		c1.4,0,2.4-0.2,3.2-0.7c0.7-0.5,1.2-1.2,1.6-2.1l0,0c1-2.4,0.4-4-0.3-4.8c-0.7-0.9-1.7-1.3-1.8-1.3c-2.5-0.9-5.3-0.7-8.1,0.4
		c-0.7,0.3-1.4,0.6-2,0.9c0-0.1,1.1-2.9,1.1-2.9h-1.1L98.4,8.7L98.4,8.7z M142.9,8.7h-6.1c0,0-8.3,8.3-9.4,9.4
		c-0.6-1.2-4.6-9.4-4.6-9.4H110l6,11.3l3.7,6.9h0.4h7.1l17.5-18.2H142.9z M31.6,12.8c-1.9,1.9-3,4.1-2.9,6.2c0,2.2,1.2,4.2,3.2,5.7
		c2.3,1.7,7.5,4,17.5,1.1l0,0l0,0L51,25l1.2-0.7c0.7-0.5,2-1.7,2.1-1.7l0.6-0.6l-2.1-2.2l-0.6,0.3c-4.1,2.5-8,3.1-10.7,1.8
		c-1.4-0.7-2.3-1.9-2.3-3.2c-0.1-1.8,0.6-3.3,1.9-4.4c1.8-1.3,4.4-1.6,7.1-0.7c0,0.2,0,0.6,0,0.9c0,0,0,0,0,0.1
		c0,0.7,0.3,1.8,1.7,2.6l0,0l0,0c2.9,1.2,4.9,0,5.8-1.4c0.5-0.9,0.7-1.9,0.4-2.9c-0.2-0.9-0.8-1.6-1.6-2.1h0.1c-1.6-1.2-3-2-4.6-2.4
		c-1.6-0.4-3.1-0.6-4.9-0.7C39.8,7.8,34.7,9.6,31.6,12.8z M188.2,9.9c-3.4,1.5-6,4-7,6.6c-0.2,0.7-0.4,1.4-0.4,2.1
		c0,1.9,1,3.5,2.9,4.9c2.2,1.6,5.5,2.7,9.2,3s7.6-0.2,10.9-1.4c3.7-1.4,6.2-3.5,7.1-6c1-2.7,0.2-5.5-2.3-7.6c-2.3-2-5.7-3.3-9.6-3.7
		C195.7,7.6,191.9,8.3,188.2,9.9z M192.4,21.2c-0.4-0.9-0.3-2.1,0.1-3.4c0.5-1.4,1.4-2.7,2.4-3.7c1-0.9,2.1-1.4,3-1.4
		c1.1,0,1.5,0.6,1.8,1.2c0.4,0.9,0.3,2.1-0.1,3.4c-0.5,1.4-1.3,2.7-2.4,3.7c-1,0.9-2.1,1.4-3,1.4C193.1,22.3,192.6,21.7,192.4,21.2z
		 M71,7.9c-6.1,0.4-13.1,4.2-14.3,9.9l0,0l0,0c-0.2,4.6,2.1,7.6,6.9,8.8c3.6,0.9,7.9,1,10.3,0.6c1.5-0.3,2.9-0.8,4.4-1.6
		c1.2-0.7,2.5-1.6,3.8-2.7l0.7-0.6l-1.9-1.5l-0.5,0.4c0,0-1.4,1.1-3.2,1.7c-1.9,0.6-5,1.2-6.8,1.1l0,0l0,0c-2.1,0-3.4-1.2-3.9-2.1
		c-0.2-0.3-0.2-0.7-0.2-1.2c0-0.4,0-0.7,0-0.9c1,0,17,0,17,0v-0.7c0-0.4,0-0.8,0-1.2c0-2.7-0.9-5.1-2.5-6.8C78.6,8.8,75,7.6,71,7.9z
		 M75,13.3c0.5,0.5,0.7,1.1,0.9,1.6c-1.3,0-6.7,0-8.5,0c0.8-1.1,2.3-2.6,4.6-2.7C73.3,12.3,74.3,12.6,75,13.3z M154.1,7.9
		c-6.1,0.4-13.1,4.2-14.3,9.9l0,0l0,0c-0.2,4.6,2.1,7.6,6.9,8.8c3.6,0.9,7.9,1,10.3,0.6c1.5-0.3,2.9-0.8,4.4-1.6
		c1.3-0.7,2.5-1.6,3.8-2.7l0.7-0.6l-1.9-1.5l-0.5,0.4c0,0-1.4,1.1-3.2,1.7c-1.9,0.6-5,1.2-6.8,1.1l0,0l0,0c-2.1,0-3.4-1.2-3.9-2.1
		c-0.2-0.3-0.2-0.7-0.2-1.2c0-0.4,0-0.7,0-0.9c1,0,17,0,17,0v-0.7c0-0.4,0-0.8,0-1.2c0-2.7-0.9-5.1-2.5-6.8
		C161.7,8.8,158.2,7.6,154.1,7.9z M158.2,13.3c0.5,0.5,0.7,1.1,0.9,1.6c-1.3,0-6.7,0-8.5,0c0.8-1.1,2.3-2.6,4.6-2.7
		C156.4,12.3,157.4,12.6,158.2,13.3z M166.9,0h-9.5l-5.3,7.2h6.8L169.3,0H166.9z"/>
</g>
</svg>
