<?xml version="1.0" encoding="utf-8"?>
<!-- Generator: Adobe Illustrator 22.0.1, SVG Export Plug-In . SVG Version: 6.00 Build 0)  -->
<svg version="1.1" id="Livello_1" xmlns="http://www.w3.org/2000/svg" xmlns:xlink="http://www.w3.org/1999/xlink" x="0px" y="0px"
	 viewBox="0 0 240 25.1" style="enable-background:new 0 0 240 25.1;" xml:space="preserve">
<style type="text/css">
	.st0{fill:#28292B;}
</style>
<g>
	<path class="st0" d="M55.1,20.4c-2.5,0-2.9-1.9-2.5-4.1c-0.6,1.5-1.2,2.9-1.7,4.1c-0.9,2.1-1.7,3.3-2.3,3.9
		c1.2,0.5,2.8,0.8,4.5,0.8c5.8,0,12.5-2.1,15-8.2h-7C60.1,19.2,57.9,20.4,55.1,20.4 M63.8,0c-0.8,0-1.5,0-2.1,0
		c-2.5,0.5-4.3,5.3-4.3,5.3s-0.7,1.5-1.6,3.8c1.5-2.4,3.5-4.4,6.1-4.4c2.7,0,3.8,1.2,3.1,3.4h7C74.6,2,69.6,0,63.8,0"/>
	<path class="st0" d="M34.8,0c0,0-0.6,0-0.9,0.2c-0.8,0.3-2.3,1.4-3.7,4.5c-2.2,5.2-6.4,15.1-6.4,15.1s-1.6,3.9-3.1,5.3h6.4
		c0.6,0,1.1-0.3,1.2-0.4c0.6-0.5,1.6-1.7,2.8-4.3c2.2-5.2,6.4-15,6.4-15s1.7-4.4,3.9-5.3h-6.6V0z"/>
	<path class="st0" d="M44,0c0,0-0.6,0-0.9,0.2c-0.8,0.3-2.3,1.4-3.7,4.5c-2.2,5.2-6.4,15-6.4,15s-1.6,3.9-3.1,5.3h6.4
		c0.6,0,1.1-0.3,1.2-0.4c0.6-0.5,1.6-1.7,2.8-4.3c2.2-5.2,6.4-15,6.4-15s1.7-4.4,3.9-5.3C50.5,0,44,0,44,0z"/>
	<path class="st0" d="M53.1,0c0,0-0.6,0-0.9,0.2c-0.8,0.3-2.3,1.4-3.7,4.5c-2.2,5.2-6.4,15-6.4,15S40.5,23.6,39,25h6.4
		c0.6,0,1.1-0.3,1.2-0.4c0.6-0.5,1.6-1.7,2.8-4.3c2.2-5.2,6.4-15,6.4-15s1.6-4.4,3.9-5.3H53.1z"/>
	<polygon class="st0" points="66.9,24.6 77.2,0.5 83.8,0.5 73.6,24.6 	"/>
	<path class="st0" d="M76.7,24.6L86.8,0.5h11.1c5.9,0,9,1.9,6.5,7.7s-7.2,7.7-13.1,7.7h-4.4l-3.7,8.6h-6.6V24.6z M92.3,11.3
		c2.7-0.1,4.3-1.3,5.1-3.1c0.8-1.8,0.2-3-2.5-3.1h-3.5l-2.6,6.1L92.3,11.3L92.3,11.3z"/>
	<path class="st0" d="M104.2,12.6C107.6,4.6,114,0,122,0s10.6,4.6,7.2,12.6c-3.4,8-9.8,12.6-17.8,12.6S100.8,20.5,104.2,12.6
		 M120.1,4.7c-4.5,0-7.3,4.2-8.9,8c-1.5,3.6-2.4,7.8,2.2,7.8c4.5,0,7.3-4.2,8.8-7.8C123.8,8.9,124.6,4.7,120.1,4.7"/>
	<polygon class="st0" points="126.2,24.6 136.4,0.5 143.1,0.5 134.8,19.9 145.8,19.9 143.8,24.6 	"/>
	<polygon class="st0" points="145.9,24.6 156.1,0.5 162.8,0.5 154.5,19.9 165.5,19.9 163.5,24.6 	"/>
	<polygon class="st0" points="165.9,24.6 176,0.5 182.8,0.5 172.5,24.6 	"/>
	<polygon class="st0" points="186,0.5 195.2,0.5 195.8,18.5 195.9,18.4 203.5,0.5 209.5,0.5 199.2,24.6 190,24.6 189.6,6.1 
		189.5,6.1 181.8,24.6 175.8,24.6 	"/>
	<polygon class="st0" points="202.5,24.6 212.6,0.5 219.4,0.5 209,24.6 	"/>
</g>
</svg>
