<?xml version="1.0" encoding="utf-8"?>
<!-- Generator: Adobe Illustrator 22.0.1, SVG Export Plug-In . SVG Version: 6.00 Build 0)  -->
<svg version="1.1" id="Livello_1" xmlns="http://www.w3.org/2000/svg" xmlns:xlink="http://www.w3.org/1999/xlink" x="0px" y="0px"
	 viewBox="0 0 240 24.2" style="enable-background:new 0 0 240 24.2;" xml:space="preserve">
<style type="text/css">
	.st0{fill:#28292B;}
</style>
<g>
	<path class="st0" d="M51.6,7.4c4.8,0,6.9,4,6.9,4l2.8-0.6l-1.9-5.2h-2l-0.6,0.7c0,0-1.7-0.8-5.6-0.8c-8.8,0-12.9,4.4-13.3,7.9
		s2.8,7.2,11.3,7.2s12-4.6,12-4.6l-2.9-0.8c0,0-3.6,3.3-8.8,3.3s-5.3-3.9-4.9-5.7C44.9,11.1,46.7,7.4,51.6,7.4"/>
	<path class="st0" d="M102,18.3c-2.2,0-1.6-1.5-1.6-1.5s1.2-5.1,1.6-7.4s3.2-1.9,3.2-1.9l0.4-1.8H93.5l-0.3,1.7
		c3,0.1,2.3,2.1,2.3,2.1s-0.8,4.2-1.5,6.8c-0.5,2.5-3.3,2.1-3.3,2.1l-0.4,1.7h20l4.7-5l-2.3-0.7C108.3,18.1,104.3,18.3,102,18.3"/>
	<path class="st0" d="M143,5.8h-9l-0.4,1.8c0,0,2.9-0.3,2.4,1.8c-0.4,2.2-1,4.7-1,4.7l-6.7-8.3H118l-0.3,1.7c0,0,2.9-0.3,2.3,2.3
		s-1.5,6.8-1.5,6.8s-0.2,1.8-3.3,1.8l-0.3,1.7h9.1l0.2-1.6c0,0-2.8,0.3-2.4-2s1.6-7.4,1.6-7.4l9,11.1h4.6l2.2-10.6
		c0,0,0.3-2.2,3.3-2.2L143,5.8"/>
	<path class="st0" d="M151.9,13.2l3.7-4.1l1.4,4.1L151.9,13.2 M165,16.5l-4.7-10.7h-5.6l-9.8,10.8c-1.9,2.2-4.1,1.8-4.1,1.8
		l-0.4,1.8h10.3l0.3-1.7c-3.5,0-2.3-1.4-2.3-1.4l1.6-2.1h7.7l0.8,2c0.6,1.7-2.8,1.5-2.8,1.5l-0.3,1.8h12.1l0.3-1.8
		C165.6,18.5,165,16.5,165,16.5"/>
	<path class="st0" d="M184.5,14.5c0,0,2.9,0,2.8,1.3c-0.1,1.4-2.4,2.6-5.7,2.6c-3.2,0-6.2-1.2-4.9-5.8c1.3-4.7,5.4-5.1,7.2-5.1
		s4.3,0,7.2,3.7l3-0.6l-1.3-4.8h-2.3l-0.6,0.5c0,0-6.8-2.5-14,0.6s-6.4,7.9-5.6,9.3c0.6,1.4,2.8,4.4,9.2,4.4c5.2,0,8-1.4,8-1.4
		l0.8,1h3.7l0.7-3.9c0,0,0.1-1.9,3.2-1.9l0.4-1.7h-11.4L184.5,14.5"/>
	<path class="st0" d="M83.1,12.3c-0.3,5.3-5.2,6.6-7.6,6.6s-6.5-0.6-5.3-6c1.2-5.4,7.4-5.5,7.4-5.5S83.4,6.9,83.1,12.3 M78,5.4
		c-13.8,0-14.7,7.8-14.7,7.8c-0.3,1.9,0.1,7.4,12,7.4c12,0,14.3-6.7,14.4-7.2C89.9,12.8,91,5.8,78,5.4"/>
	<path class="st0" d="M218.4,12.3c-0.3,5.3-5.2,6.6-7.6,6.6c-2.4,0-6.5-0.6-5.3-6s7.4-5.5,7.4-5.5S218.6,6.9,218.4,12.3 M213.3,5.4
		c-13.8,0-14.7,7.8-14.7,7.8c-0.3,1.9,0.1,7.4,12,7.4c12,0,14.3-6.7,14.4-7.2C225.1,12.8,226.3,5.8,213.3,5.4"/>
	<path class="st0" d="M32.5,10.9c-1.8,2.5-2.6,2.1-3.8,2.1c0,0,0.1-1.9,2.1-2.9c1.9-1,4-2.8,4.3-4.3C35.6,4.2,35.7,0,31.4,0
		c0,0-5.1-0.3-6.6,5.5c0,0-0.5,2.3,1.2,3.7c1.8,1.4,1.8,2.9,1.6,3.9c0,0-1.7,0-2.1-1.4c-0.3-1.4-1.3-3.4-3.8-3.4s-5.7,1.7-6.6,5
		c-0.7,3.3,1.6,5.4,3.7,5.4c2.2,0,4.4-1.1,5.4-2.6c1-1.6,2.1-2,3.1-2c0,0-0.7,6.4-6.4,10.2h9.6c0,0-4.2-3.2-2.3-10.2
		c0,0,2.1-0.4,2.6,1c0.4,1.4,1,3.7,3.9,3.7c0,0-2.5-4.4,2-10.4C36.9,8.4,34.3,8.4,32.5,10.9"/>
</g>
</svg>
