<?xml version="1.0" encoding="utf-8"?>
<!-- Generator: Adobe Illustrator 22.0.1, SVG Export Plug-In . SVG Version: 6.00 Build 0)  -->
<svg version="1.1"
	 id="svg5985" xmlns:cc="http://creativecommons.org/ns#" xmlns:dc="http://purl.org/dc/elements/1.1/" xmlns:rdf="http://www.w3.org/1999/02/22-rdf-syntax-ns#" xmlns:svg="http://www.w3.org/2000/svg"
	 xmlns="http://www.w3.org/2000/svg" xmlns:xlink="http://www.w3.org/1999/xlink" x="0px" y="0px" viewBox="0 0 240 50"
	 style="enable-background:new 0 0 240 50;" xml:space="preserve">
<style type="text/css">
	.st0{fill:#28292B;}
</style>
<g id="layer1" transform="translate(-568.7331,-967.42168)">
	<g id="g6001" transform="matrix(1.25,0,0,-1.25,-39.350875,1036.0547)">
		<g id="g6109" transform="translate(8.0620644,8.2143697)">
			<g>
				<g id="g6111">
					<g id="g6231" transform="translate(511.1993,31.8326)">
						<path id="path6233" class="st0" d="M57-7.9c0.9,0.9,1.8,2.1,2.4,3.3c1.7,3.5,0.7,8-2,10.9c-2.5,2.5-5.6,3.4-9.1,3.5
							c-5.5,0.5-9.6-3.2-11.8-6.8c-2.4,3.6-6.4,7.1-11.8,6.6c-3.5-0.4-6.6-1.3-9-3.9c-2.6-3-3.4-7.6-1.5-11
							c2.7-5.3,5.9-4.8,10.6-9.1c2.3-2.1,8.3-7.8,10.7-10.6l-0.1-0.1c-2.6,3-6.6,5.7-9.6,8.4C20.2-11.9,11.7-9.5,8.4-3.2
							C6.3,0.9,7.2,6.3,10.3,9.7c2.7,3.1,6.4,4.3,10.5,4.6c6.4,0.6,11.1-3.7,13.8-7.7c2.6,4.3,7.3,8.6,13.7,8.3
							c4.1-0.2,7.8-1.3,10.8-4.3c3.2-3.3,4.4-8.6,2.4-12.8C60.5-4.6,58.8-6.3,57-7.9"/>
					</g>
					<g id="g6235" transform="translate(498.0414,35.2492)">
						<path id="path6237" class="st0" d="M50.2-6.1c-0.5,0.6-1.3,0.9-2.3,0.9c-0.4,0-0.5-0.1-0.5-0.4c-0.1-1.9,0-3.8,0.1-5.6
							c0,0,0-0.2,0.2-0.2c0.7-0.1,1.5,0.1,2,0.5C51.4-9.6,51.1-7.5,50.2-6.1 M50.6-3.7c1.9-0.2,3.7-1.5,4.4-3
							c0.8-1.7,0.4-3.7-1.2-4.8c-1.2-0.8-2.6-1.2-4.3-1.3c-2.2,0-4.7-0.1-7,0c-0.2,0-0.4,0.2-0.5,0.5c0,0.2,0.4,0.6,0.6,0.6
							c0.2,0.1,0.5,0.1,0.6,0.4c0.2,2.1,0.2,3.8,0.1,5.9c-0.2,0.5-1.6,0.8-0.8,1.5c0.1,0.2,0.6,0.2,0.8,0.2H50.6z"/>
					</g>
					<g id="g6239" transform="translate(519.9725,35.7963)">
						<path id="path6241" class="st0" d="M61.5-5.8c-0.2,0.2-0.5,0.2-0.8,0.2c-0.2,0-0.7-0.2-0.7-0.5c-0.1-0.7,0-1.9,0-2
							c0.1-0.2,0.5-0.2,0.7-0.2c0.4,0,0.8,0.2,0.9,0.6C62-7,62-6.3,61.5-5.8 M65.2-4.9C65.9-5.5,66-6.3,65.8-7
							c-0.3-0.5-0.7-1-1.3-1.3c0-0.6,1.1-0.5,1.4-0.8c0.9-0.9,0.2-2.4,1.8-2.8c0.2-0.1,0.2-0.4,0.1-0.5c-0.4-0.7-1.7-0.8-2.5-0.8
							c-0.9,0.1-1.9,0.1-2.4,0.8c-0.6,1.1-0.6,2.4-1.9,3.1c-0.2,0.1-0.7,0-0.8-0.1c-0.1-0.1,0-1.2,0-1.8c0.1-0.7,1.7-0.6,1.1-1.5
							c-0.6-0.6-3.1-0.6-4.5-0.5c-0.6,0-1.2,0.1-1.4,0.5c-0.2,0.6,0.8,0.8,0.9,1.2c0.1,1.9,0.2,3.5,0.1,5.6
							c-0.2,0.7-1.7,0.6-1.3,1.4c0.1,0.2,0.4,0.4,0.6,0.4c2.1,0.1,5.2,0.1,7.9,0C64.2-4.4,64.7-4.5,65.2-4.9"/>
					</g>
					<g id="g6243" transform="translate(547.7832,33.5394)">
						<path id="path6245" class="st0" d="M75.8-7c-0.1,0.1-0.9,1.3-0.9,1.4c-0.1,0.1-0.5,0.1-0.5,0c-0.2-0.4-0.7-1-0.8-1.4
							c0-0.1-0.1-0.4,0.2-0.4c0.3,0,1.2,0,1.9,0C75.8-7.3,75.8-7.1,75.8-7 M79.5-6.7l1.6-2.8c0.4-0.4,1.2-0.4,1.3-0.8
							c0-0.4-0.4-0.6-0.7-0.6c-1.8-0.2-4-0.4-5.4,0c-0.4,0.1-0.5,0.4-0.4,0.7c0.2,0.4,1.3,0.4,0.8,0.9c0,0-0.2,0.2-0.5,0.2
							c-1.2,0.1-2.4,0.2-3.5,0c-0.4-0.1-0.6-0.5-0.6-0.6c0.2-0.5,1.3-0.4,1.1-1.1c-0.4-0.6-1.5-0.6-2.4-0.6c-0.7,0-1.2,0.1-1.8,0.2
							c-0.4,0.1-0.2,0.5-0.2,0.6c0.1,0.4,0.8,0.4,1.2,0.6c1.2,1.8,2.2,3.7,3,5.6c-0.2,0.8-0.2,1.3,0.2,1.7s1.1,0.5,1.7,0.4
							c1.5-0.4,2.5-1.5,3.2-2.5C78.2-4.5,79.5-6.7,79.5-6.7z"/>
					</g>
					<g id="g6247" transform="translate(540.854,36.6426)">
						<path id="path6249" class="st0" d="M72.2-5.3C72.7-6,74.1-7,73-7.6c-0.7-0.5-2.5,0.8-3.9,1.1c-0.4,0-0.9,0.2-0.8-0.5
							c0.2-0.8,2.1-1.1,3.3-1.4c1.3-0.4,2.2-1.5,2.2-2.7c0-1.1-0.7-2-2-2.5c-2-0.7-5-0.8-7,0c-0.7,0.2-1.2,1.5-1.1,2.4
							c0.1,0.1,0.2,0.4,0.5,0.4c1.4,0,1.8-1.5,3.1-1.7c0.5-0.1,1.4-0.2,1.9,0.1c0.2,0.1,0.4,0.4,0.2,0.5c-0.2,0.7-2.4,0.7-3.4,1.2
							C64.7-10.1,63.9-9,63.9-8c0,0.9,0.7,2,1.9,2.6c1.4,0.6,3.3,0.4,4.8,0.2C71.1-5,71.8-4.9,72.2-5.3"/>
					</g>
					<g id="g6251" transform="translate(509.9409,35.7193)">
						<path id="path6253" class="st0" d="M56.2-5.9c0.1-0.2,0.2-0.8-0.4-0.9c-1.3-0.2-1.7,1.3-3,1.3c-0.7,0-1.9,0.2-2.2-0.5
							c-0.2-0.4-0.4-1.9,0.4-2.1c0.4-0.1,0.7,0,0.9,0.2c0.4,0.4,0.4,0.9,0.9,1.1c0.4,0,0.8-0.1,0.8-0.5c0.2-0.9,0.1-2.1-0.2-3.1
							c0-0.2-0.5-0.4-0.8-0.2c-0.7,0.2-0.4,1.3-1.4,1.3c-0.2,0-0.5-0.1-0.6-0.2c-0.5-0.6-0.4-1.4-0.1-2c0.2-0.7,1.9-0.5,2.7-0.5
							c1.4,0.1,1.8,1.3,3,1.7c0.2,0.1,0.7-0.1,0.7-0.4c0-0.8-0.4-1.9-0.9-2.7c-0.4-0.6-1.3-0.1-1.9,0h-8c-0.2,0-0.6,0.2-0.6,0.5
							c0,0.4,0.2,0.5,0.5,0.6c0.2,0,0.7,0.1,0.8,0.5c0.1,2,0.2,3.7,0,5.8c-0.4,0.7-1.4,0.5-1.3,1.2c0,0.2,0.4,0.5,0.6,0.5
							c3,0.1,5.2,0,8,0.1c0.4,0.1,0.7,0.2,1.2,0.1C55.8-4.3,56.1-5.4,56.2-5.9"/>
					</g>
					<path class="st0" d="M595.9,31.7c-3.5,0-6.3-2.1-6.3-4.7s2.8-4.7,6.3-4.7s6.3,2.1,6.3,4.7S599.4,31.7,595.9,31.7z M599.7,26.9
						c-0.5-0.8-1.7-1.2-2.5-1.9c-0.5-0.4-1.1-0.7-1.4-1.2c-0.4,0.4-0.9,0.8-1.4,1.2c-0.8,0.7-2,1.1-2.5,1.9
						c-0.2,0.6-0.1,1.3,0.4,1.8c0.4,0.4,0.9,0.6,1.5,0.6c1,0.1,1.7-0.5,2-1.1c0.4,0.6,1.1,1.2,2,1.1c0.6,0,1.2-0.2,1.5-0.6
						C599.8,28.2,599.9,27.5,599.7,26.9z"/>
				</g>
			</g>
		</g>
	</g>
</g>
</svg>
