<?xml version="1.0" encoding="utf-8"?>
<!-- Generator: Adobe Illustrator 22.0.1, SVG Export Plug-In . SVG Version: 6.00 Build 0)  -->
<svg version="1.1" id="Livello_1" xmlns="http://www.w3.org/2000/svg" xmlns:xlink="http://www.w3.org/1999/xlink" x="0px" y="0px"
	 viewBox="0 0 240 26" style="enable-background:new 0 0 240 26;" xml:space="preserve">
<style type="text/css">
	.st0{fill:#28292B;}
</style>
<g>
	<path class="st0" d="M51.3,18.8L34.4,9.9l2.1-3.1h19.8c0.2-0.2,0.8-0.4,0.9-0.8L33.4,5.8l-9.7,13h-8.9L28.8,0h37
		c1.3,0.5,2.6,0.7,2.7,2.4c-0.8,7.8-8.7,8.4-16.5,9.1l13.1,5.1L77.6,0c6.8,0,2.6,0,9.2,0L73.1,18.8H51.3z M90.5,0h23.8
		c10.7,0,7.1,5.7,3,12.3c-5,7.5-15.6,6.3-29.9,6.5l4-5h7.4c5.4-0.8,11.8-1.8,13.3-6.6c0.1-0.5-0.3-1.1-0.6-1.4L96,5.7L85.8,18.9
		l-8.4-0.1L90.5,0L90.5,0z M114.5,18.8L127.8,0l10,0.1l-8.7,13.3l14.1,0.1c4.1-10.1,16.4-12.2,29.1-13.4l24.1,0.1l-5.3,12.9L214.1,0
		h11l-45.3,24.5L165.4,26l14.2-6.8l5.7-13.9c-8.5,0.1-20.7-0.4-27.4,3l13,0.2l-2.6,5.3h-13.4c3.8,3.1,11.2,3.1,16.9,3.4L174,21
		c-8.2,1.1-17.6,1.4-24.6-1.3c-2.2-0.8-4.1-2.3-6-3.6l-2,2.7L114.5,18.8L114.5,18.8z"/>
</g>
</svg>
