<?xml version="1.0" encoding="utf-8"?>
<!-- Generator: Adobe Illustrator 22.0.1, SVG Export Plug-In . SVG Version: 6.00 Build 0)  -->
<svg version="1.1" id="Livello_1" xmlns="http://www.w3.org/2000/svg" xmlns:xlink="http://www.w3.org/1999/xlink" x="0px" y="0px"
	 viewBox="0 0 240 25.6" style="enable-background:new 0 0 240 25.6;" xml:space="preserve">
<style type="text/css">
	.st0{fill:#28292B;}
</style>
<g>
	<path id="path4833" class="st0" d="M203.4,3.1l-2.1,3.4h-2.6l2.9-4.8h3.5L205,5l2-3.3h2.6l-2.9,4.8h-3.3L203.4,3.1"/>
	<path id="path4837" class="st0" d="M212.4,1.7l-5.1,4.8h3l1.1-1.1h1.9L213,6.5h2.9l0.8-4.8C216.7,1.7,212.4,1.7,212.4,1.7z
		 M214.2,2.5l-0.6,2h-1.4L214.2,2.5z"/>
	<path id="path4839" class="st0" d="M213.2,15.5c0,0-9.2-1.4-18.3,2.2c0,0-2.9,1.2-6.3,3.1l-4.3,2.5c0,0-4,2.1-7.7,2.4
		c0,0-3.9,0.3-4.9-1.7c0,0-1-2,0.1-4.9c0,0,0.9-2.4,2.9-4.6c0,0-1.8,0.3-3-0.5c0,0-1.2-0.7-1.1-1.9c0,0,0.1-1.2,1.3-2.1
		c0,0,1.2-1,2.9-1.2c0,0,1.7-0.2,2.8,0.5c0,0,1.6,1,1,2.6c0,0,2.1-0.2,6.5,0.1c0,0-3.9,3.8-5.9,7.6c0,0-0.7,1.3-0.5,2.2
		c0,0,0.1,0.9,1,1.2c0,0,1.8,0.6,5.1-1.5l7.3-4.6c0,0,4.4-2.6,8-4.1c0,0,9.4-4,16.7-2.2C216.8,10.6,214.7,13.1,213.2,15.5"/>
	<path id="path4841" class="st0" d="M48.8,3.1c0,0-5.3-0.4-9.6,0.6c0,0-4.2,1-6.4,3c0,0-2.2,2.2-1.5,4.8c0,0,0.8,2.9,4.9,5.9
		c0,0-6.8-0.3-10.3-3.2c0,0-3.2-2.6-2.6-6.2c0,0,0.7-3.5,4.8-5.8c0,0,4.6-2.5,11.7-2.1l8.6,0.8l6.8,0.8c0,0,7.1,0.7,13.7-0.5
		c0,0-8.1,5.5-11.9,9.5c0,0-5.8,6.1-7.5,13.8c0,0,4.2-0.6,8.3-3.3c0,0,3.4-2.3,6-5.4c0,0,7.5-9.4,16.6-12.7c0,0-5.8,5.3-7.6,10.9
		c0,0-1.6,4.7-0.6,10.4c0,0,1.9-0.7,3.9-2.9c0,0,1.4-1.6,3.6-4.7l3.6-5.2c0,0,2.1-2.9,3.9-4.4c0,0,6.7-6,18.1-7c0,0,4.7-0.4,9.4,0.2
		c0,0,4.3,0.6,7.5,1.8c0,0-5,2.1-7.3,4.3c0,0-0.3-2.4-2.9-3.9c0,0-2.5-1.5-5.9-1.3c0,0-3.8,0.2-7.2,2.4c0,0-3.9,2.5-6.5,7.2
		c0,0-4.2,7.4-9.5,10.9c0,0-4.6,3-11.5,3.9c0,0-1.7-0.9-2.8-2.6c0,0-0.9-1.5-1.2-3c0,0-3,2.3-7.6,3.8c0,0-5.4,1.8-11.4,1.8
		c0,0-5.5-7.4-2.3-13.1c0,0,3.4-6.2,16.6-9.6l-6.2,0.6L48.8,3.1"/>
	<path id="path4843" class="st0" d="M105.9,10c0,0-1.2-0.7-1.1-1.9c0,0,0.1-1.2,1.3-2.1c0,0,1.2-1,2.9-1.2c0,0,1.7-0.2,2.8,0.5
		c0,0,1.2,0.7,1.1,1.9c0,0-0.1,1.2-1.3,2.1c0,0-1.2,1-2.9,1.2C108.7,10.5,107.1,10.7,105.9,10"/>
	<path id="path4845" class="st0" d="M102.6,19.7c0,0-1.3,2.6,0.1,3c0,0,1.3,0.4,5.3-0.7l-0.7,1.3c0,0-2.7,1.7-6.8,2.2
		c0,0-4.5,0.4-5.4-1.5c0,0-1.4-2.9,1.4-7.3c0,0,1.1-1.7,2.5-3c0,0,1.4-1.3,2.3-1.5c0,0,1.7-0.5,7.2,0
		C108.4,12.2,104.6,15.8,102.6,19.7"/>
	<path id="path4847" class="st0" d="M142.1,8.2c0,0,0.1-1.2,1.3-2.1c0,0,1.3-1,2.9-1.2c0,0,1.7-0.2,2.8,0.5c0,0,1.2,0.7,1.1,1.9
		c0,0-0.1,1.2-1.3,2.1c0,0-1.2,1-2.9,1.2c0,0-1.7,0.2-2.8-0.5C143.2,10,142,9.3,142.1,8.2"/>
	<path id="path4849" class="st0" d="M134.7,10.1c0,0-1.6,2.9-6.5,5.9c0,0-5.1,3.1-9.5,3.8v-1c0,0,3-0.6,6.4-2.6c0,0,3.1-1.8,5.4-4.2
		c0,0,2.3-2.3,2.7-4.1c0,0,0.4-1.9-1.6-2.4c0,0-2.5-0.6-6.5,2.7c0,0-3.8,3.2-5.9,7.2c0,0-2.3,4.4-0.4,6.3c0,0,2.2,2.3,9.8,0
		l-0.7,1.3c0,0-4.1,1.9-8,2.4c0,0-4,0.5-6.5-0.6c0,0-2.7-1.2-2.8-4.1c0,0-0.1-3.2,3.1-8c0,0,3.3-5,8.1-8c0,0,4.3-2.6,8.3-2.8
		c0,0,3.8-0.2,5.3,1.9C135.3,3.9,136.9,6.2,134.7,10.1"/>
	<path id="path4851" class="st0" d="M154,1.7h7.1l-0.6,1.1h-2.1l-2.2,3.7h-3l2.2-3.7h-2.1L154,1.7"/>
	<path id="path4853" class="st0" d="M133.8,16.7c0,0,1.1-1.7,2.5-3c0,0,1.4-1.3,2.3-1.5c0,0,1.7-0.5,7.2,0c0,0-3.9,3.8-5.9,7.6
		c0,0-1.3,2.6,0.1,3c0,0,1.3,0.4,5.3-0.7l-0.7,1.3c0,0-2.7,1.7-6.8,2.2c0,0-4.5,0.4-5.4-1.5C132.4,24,131,21.1,133.8,16.7"/>
	<path id="path4855" class="st0" d="M149.7,16.7c0,0,2-3.4,5.7-5.6c0,0,3.3-1.9,6.7-2.3c0,0,3.3-0.3,4.7,1.1c0,0,1.5,1.5-0.1,4.6
		c0,0-1.2,2.2-4,4c0,0-3,2-6.7,2.6l-0.1-0.8c0,0,5.1-1.5,7.9-4.6c0,0,1.1-1.3,1.2-2.3c0,0,0.1-1-0.9-1.4c0,0-2.7-0.9-5.8,2.2
		c0,0-3,3-3.2,6.3c0,0-0.1,2.9,4.9,2.1c0,0,2.6-0.4,5.9-1.7l-0.6,1.2c0,0-3.2,1.9-7,2.7c0,0-3.7,0.8-6.5,0.3c0,0-2.9-0.6-3.7-2.6
		C148.3,22.8,147.5,20.5,149.7,16.7"/>
	<path id="path4857" class="st0" d="M184.4,3.4l1.1,0.3c0,0,1.7,0.5,1.1,1.3c0,0-0.9,1.5-4.8,1.5c0,0-1.5,0-2.3-0.4l0.7-1.2
		c0,0,0.5,0.5,2,0.5c0,0,1.3,0,1.6-0.4c0,0,0.1-0.2-0.4-0.4l-1.2-0.3c0,0-1.7-0.5-1.2-1.4c0,0,0.9-1.4,4.4-1.4c0,0,1.8,0,2.6,0.4
		l-0.7,1.2c0,0-0.4-0.5-1.9-0.5c0,0-1.4,0-1.6,0.4C184,3.1,183.9,3.3,184.4,3.4"/>
	<path id="path4859" class="st0" d="M180.5,2.8h-3.3l-0.5,0.8h3.3l-0.6,1h-3.3l-0.5,0.8h3.3l-0.6,1H172l2.9-4.8h6.2L180.5,2.8"/>
	<path id="path4861" class="st0" d="M195.5,2.8h-2.1l-2.3,3.7h-2.9l2.3-3.7h-2.1l0.6-1.1h7.1L195.5,2.8"/>
	<path id="path4863" class="st0" d="M194.1,6.5l2.9-4.8h2.9L197,6.5H194.1"/>
	<path id="path4867" class="st0" d="M161.9,1.7L159,6.5h2.8l1.3-2l0.4,2h3l-0.7-2.1c1.9-0.2,2.6-1.3,2.6-1.3
		c0.8-1.3-2.4-1.3-2.4-1.3h-4.1V1.7z M164.1,2.7h0.4c1.2,0,0.8,0.5,0.8,0.5C165,3.7,164,3.7,164,3.7h-0.6L164.1,2.7z"/>
	<path id="path4869" class="st0" d="M173.2,1.7l-2.9,4.8h-2.9l2.9-4.8L173.2,1.7"/>
</g>
</svg>
