<?xml version="1.0" encoding="utf-8"?>
<!-- Generator: Adobe Illustrator 22.0.1, SVG Export Plug-In . SVG Version: 6.00 Build 0)  -->
<svg version="1.1" id="Livello_1" xmlns="http://www.w3.org/2000/svg" xmlns:xlink="http://www.w3.org/1999/xlink" x="0px" y="0px"
	 viewBox="0 0 380 50" style="enable-background:new 0 0 380 50;" xml:space="preserve">
<style type="text/css">
	.st0{fill:#C02A1B;}
	.st1{fill:#28292B;}
</style>
<g>
	<path class="st0" d="M78.9,30.9l-6,4H25.5c0,0,4.8-5.4,6.2-7.1c1.4-1.6,5.7-5.1,11.4-5.1c0,0,25.5,0,26.8,0c2.8,0,4.5-0.2,6.3-1.9
		c0.3-0.3,2.2-2.1,0.3-2.1c-1.9,0-38.1,0-38.1,0l5.8-3.7l38.1,0c1.3,0,2.8,0.5,3.1,2c0.1,0.8,0,1.7-1,3c-0.4,0.6-1,1.3-1.8,2
		c0,0-4.5,4.5-12.4,4.6c0,0-24.3,0-26.4,0c-2.1,0-4.3,1-5.6,2.6c-1.3,1.5-1.3,1.5-1.3,1.5L78.9,30.9z"/>
	<polygon class="st0" points="24.1,15.1 18.3,18.8 27.5,18.8 13.6,34.9 21.4,34.9 38.7,15.1 	"/>
	<g>
		<g>
			<path class="st1" d="M356,15.1h4.4l-0.2,0.6h-1.7l-1.3,3.2h-0.9l1.3-3.2h-1.8L356,15.1z"/>
			<path class="st1" d="M360.9,15.1h1.3l0.2,2.8h0l2.7-2.8h1.3l-1.5,3.7H364l1.3-3h0l-2.8,3h-0.7l-0.3-3h0l-1.2,3h-0.9L360.9,15.1z"
				/>
		</g>
		<g>
			<path class="st1" d="M190,15.1c1.3,0,2.8,0.5,3.1,2c0.1,0.8,0,1.7-1,3.1c-0.4,0.6-1,1.3-1.8,2c0,0-4.5,4.5-12.4,4.7h-26.4
				l5.6-3.5l20.3,0c2.9,0,4.9-0.7,6.6-2.4c0.3-0.3,2.2-2.1,0.3-2.1h-23.7c-1.6,0-6.5,0.6-10.3,4.7l-9.9,11.4h-7.9l11.8-13.6
				c3.7-4.3,9-6.2,18.6-6.2H190z"/>
			<g>
				<path class="st1" d="M298,18.8l5.8-3.7l-36,0c-13.8,0-17.2,4.7-19,6.8l-5.1,5.9c-1.1,1.3-1.5,2.6-1.2,3.7
					c0.6,2.1,3.9,3.4,8.8,3.4l32.3,0l5.7-3.7l-36,0c-4.6,0-2.4-2.7-2.4-2.7s0,0,4.3-5c3.4-3.9,8.4-4.7,10.4-4.7H298z"/>
				<polygon class="st1" points="256.4,26.8 285.4,26.8 290.8,23.3 262,23.3 				"/>
			</g>
			<g>
				<path class="st1" d="M244.6,18.8l5.8-3.7l-36,0c-13.8,0-17.2,4.7-19,6.8l-5.1,5.9c-1.1,1.3-1.5,2.6-1.2,3.7
					c0.6,2.1,3.9,3.4,8.8,3.4l32.3,0l5.7-3.7l-36,0c-4.6,0-2.3-2.7-2.3-2.7s0,0,4.3-5c3.4-3.9,8.4-4.7,10.4-4.7H244.6z"/>
				<polygon class="st1" points="203,26.8 231.9,26.8 237.4,23.3 208.6,23.3 				"/>
			</g>
			<path class="st1" d="M353.2,17.7c-0.4-1.5-2.7-2.6-9.7-2.6h-33.4l-17,19.8h36.8c7,0,12.5-2.1,15.8-6.2l6.4-7.4
				C353.1,20.1,353.5,18.8,353.2,17.7z M329.8,31.3H304l10.6-12.4c0,0,20.9,0,26,0c5.1,0,3.6,2.5,2.2,4.1c-1.4,1.6-3,3.4-4.1,4.7
				C336.6,30.1,333.7,31.3,329.8,31.3z"/>
			<g>
				<path class="st1" d="M108.4,18.8h30l5.9-3.7l-35.8,0c-8.2,0-12.9,3.4-14.4,4.7c-1.5,1.3-2.9,3-2.9,4.5c0,1.5,1.1,2.5,3.6,2.5
					l29.6,0c0.4,0,1.9-0.1,0.8,1.3c-2.1,2.5-4.4,2.9-8.1,2.9H87.2l-6.3,4l36.6,0c8,0,13.2-4.7,13.3-4.8c1.9-1.8,2.9-3.2,2.9-4.5
					c0-1.3-0.8-2.8-3.9-2.8l-29.7,0c0,0-1.7,0.1-0.6-1.2C101.6,19.2,104.9,18.8,108.4,18.8z"/>
			</g>
		</g>
	</g>
</g>
</svg>
