<?xml version="1.0" encoding="utf-8"?>
<!-- Generator: Adobe Illustrator 22.0.1, SVG Export Plug-In . SVG Version: 6.00 Build 0)  -->
<svg version="1.1" id="Livello_1" xmlns="http://www.w3.org/2000/svg" xmlns:xlink="http://www.w3.org/1999/xlink" x="0px" y="0px"
	 viewBox="0 0 1000 230" style="enable-background:new 0 0 1000 230;" xml:space="preserve">
<style type="text/css">
	.st0{fill-rule:evenodd;clip-rule:evenodd;fill:#28292B;}
</style>
<g>
	<path class="st0" d="M833,147.3c4.4,0,7.9-3.4,7.9-7.8c0-4.4-3.4-7.8-7.8-7.9c-4.4,0-7.9,3.4-7.9,7.8
		C825.2,143.8,828.6,147.2,833,147.3z M833.1,132.9c3.6,0,6.6,2.9,6.6,6.6c0,3.7-3,6.5-6.6,6.5c-3.6,0-6.5-2.9-6.5-6.6
		C826.5,135.7,829.5,132.9,833.1,132.9z M834.2,139.8c0,0,1.8-0.3,1.9-2.4c0-1.9-1.4-2.3-3-2.3l-2.4,0l0,8.8l1.4,0l0-4l0.6,0l2.2,4
		l1.7,0L834.2,139.8z M832.8,136.4c1,0,1.8,0,1.8,1.1c0,0.8-0.7,1.1-1.7,1H832v-2.1L832.8,136.4z"/>
	<path class="st0" d="M771.7,69.5c-0.3-0.3,0.3-1.4,1.2-2.7c2.4-3.5,8-10.4,13.5-15.4c5.5-5,12.4-10.1,14.8-11.5
		c2.3-1.3,6.4-2.8,7.8-1.4c1.5,1.6,0.5,4.3-0.7,6.1c-1.2,1.8-4.2,6.5-9,10.8c-4.7,4.2-8.8,6.8-13.6,9.2c-3.6,1.8-8.5,3.7-11.2,4.6
		C773,69.7,772,69.9,771.7,69.5z M493.6,190.5c-1.1-1.4,0.2-4.6,2.6-7.9c2.3-3.3,8.2-9.7,14.4-14c6.1-4.3,11.4-6.8,12.8-7.4
		c1.4-0.6,3.4-1.2,3.7-0.9c0.4,0.4,0.1,1.7-0.9,3.3c-1.7,2.7-5.8,8.5-11.8,14.4c-4,4-9.9,8.7-13.2,10.8
		C498.4,190.5,494.8,192.2,493.6,190.5z M210.3,126.8c-4-3.4-0.3-14.9,8.6-25.3c8.9-10.5,19.6-16,23.6-12.6c4,3.4,0.2,14.8-8.7,25.3
		C224.9,124.6,214.3,130.2,210.3,126.8z M771.2,126.3c-3.5-3,0-14.5,8.9-24.9c8.8-10.1,20.4-15.5,23.8-12.7c0.5,0.4,0.7,1,0.9,1.6
		c0.3,0.9-7.2,1.7-9.7,10.7c-1.6,8.8,2.1,10.8,1.3,11.7c-0.4,0.5-0.9,1.4-1.4,1.9C786.3,124.5,774.9,129.5,771.2,126.3z
		 M676.9,126.8c-3.6-3-0.1-14.5,8.9-24.9c8.7-10.1,20.2-15.4,23.6-12.6c0.5,0.4,0.8,0.9,1.1,1.6c0.3,0.6-7.4,1.7-9.9,10.7
		c-1.6,8.8,2.2,10.7,1.5,11.7c-0.4,0.5-0.9,1.4-1.4,1.9C692,125,680.6,130,676.9,126.8z M535.3,126.8c-4-3.4-0.3-14.8,8.6-25.3
		c8.9-10.5,19.6-16,23.6-12.6c4,3.4,0.2,14.8-8.7,25.3C549.9,124.6,539.3,130.2,535.3,126.8z M462.4,127c-4-3.4-0.3-14.8,8.6-25.3
		c8.9-10.5,19.6-16,23.6-12.6c4,3.4,0.2,14.8-8.7,25.3C477,124.8,466.4,130.4,462.4,127z M179.7,77.9c0,0-1.3,0.3-1.4-0.5
		c-0.1-0.7,0.3-1.6,2.1-3.8c1.8-2.1,9.6-11.5,15-16.1c5.4-4.5,10.6-9.3,16.4-12.6c5.8-3.3,9.1-5.3,13.2-6.8c4-1.4,12.1-2.9,14.2,0.3
		c2,3.2-0.5,7.7-4,11.7c-3.8,4.3-11.2,10.5-17,13.8c-6.3,3.6-13.6,6.8-20.3,9.1C189,76.4,179.7,77.9,179.7,77.9z M170,88.4
		c-1.3,2-3.1,5.6-5.4,10.4c-2.4,4.7-4.6,9.9-5.9,13.8c-1.3,4-2,9.1-1.2,12.1c0.8,3.1,4.9,5.6,8.2,5.4c3.3-0.2,7.1-0.9,10.8-2.2
		c3.7-1.3,6.4-2.9,8.8-4.6c2.4-1.7,4.6-3.6,6-5.3c1.7-2,4.4-6.6,8.4-11.3c3.4-4.1,8.2-8.9,11.6-11.8c3.4-2.9,6.1-4.9,10.1-7.5
		c3.4-2.2,8.6-4.7,12.4-6c3-1,8.8-1.7,11.6-0.7c3.2,1.1,4.6,2.5,5.8,4.2c0.7,1,1.4,0,1.4,0s1.4-1.9,2.2-3c0.4-0.5,1.2-0.4,1.2-0.4
		l18.7,0.1c1.3,0,0.5,0.7,0.5,0.7s-26.1,38.4-27.2,40.3c-1.2,1.9-2.9,4.1-3,6.4c-0.1,2.2,2.4,2.3,4,1.9c1.6-0.3,5.5-2.5,8-4.1
		c2.5-1.6,6.1-5.3,8.8-8c2.6-2.8,5.6-7.2,5.6-7.2s19.1-28,19.9-29.1c0.5-0.7,1.3-0.6,1.3-0.6s17.7,0,18.9,0.1
		c1.2,0.1,0.5,0.7,0.5,0.7s-1.2,2.2-1.8,3.3c-0.6,1.2,1.4,0.5,1.4,0.5s3.2-1.6,6.4-2.6c3.2-1,6.4-1.9,9.7-2.4c3.1-0.4,6-0.6,8.6-0.4
		c2.6,0.2,4.7,2.5,5.4,4.3c0.5,1.3,0.1,2.9,0.6,3.5c0.4,0.6,1,0.1,2.2-0.3c1.3-0.5,3.7-2,7.4-3.3c4-1.4,7.8-2.7,12-3.4
		c4.1-0.7,6.6-0.4,9.1,0c2.5,0.5,4.6,3.5,4.5,5.5c0,2-1.1,4.7-1.1,4.7l-17.6,26.9c0,0-4.2,6.2-5.2,8.4c-1,2.2-0.5,4,1.2,4.6
		c1.2,0.4,3.4,0.2,5.2-0.7c1.8-0.9,5.2-3,7.1-4.5c2.3-1.8,4.3-4.2,4.3-4.2s26.8-39.3,27.3-40.1c0.4-0.8,1.2-0.6,1.2-0.6l16.8,0.1
		c0,0,0.5-0.1,1.8,0c1,0.1,0.6,0.7,0.6,0.7s-1.1,2-1.6,3.1c-0.6,1.3,1.2,0.8,1.2,0.8s4.4-1.9,7.8-3.1c3.3-1.2,5.9-1.6,10.1-2.1
		c4.4-0.5,8.8,0.4,10.5,2.4c1.8,2.1,1.1,6,0.4,8.3c-0.7,2.2-2.2,4.2-3.7,6.9c-1.5,2.7-8.2,12.2-10.1,15.4c-2,3.2-6.8,9.8-7.9,12.2
		c-1.5,3.1-1.2,4.3,0,5.3c1.3,1.2,4.1,0.1,5.8-0.6c1.7-0.7,4.6-3,7.3-5.6c2.7-2.6,6.4-8.3,7.9-10.6c1.5-2.2,3.2-4.6,5.5-7.8
		c3.2-4.4,6.9-7.9,10.1-10.9c3.2-2.9,6.2-4.9,10.9-8.1c5-3.4,10.4-5.5,14-6.7c3.6-1.2,8.4-1.1,11-0.2c2,0.7,3,1.8,4.1,2.8
		c1.2,1,1.3,1.3,1.9,1.4c0.5,0.1,1.3-0.6,1.3-0.6s1.5-2,2.1-2.5c0.5-0.5,0.9-0.4,0.9-0.4s17.1,0,18.1,0.1c1,0.1,0.2,1.2,0.2,1.2
		s-12.5,19.3-15.3,23.4c-2.8,4-10.9,15.8-12.1,17.7c-1.2,1.9-2.2,3.3-2.3,5c-0.1,1.7,1.1,2.3,2.8,2.2c1.6-0.2,3-0.7,4.9-1.8
		c1.9-1.1,3.5-2.1,5.9-3.9c2.3-1.8,3.4-3.4,5.2-6.1c1.7-2.7,2.1-3.6,5.4-8c3.3-4.5,5.7-7,9.2-10.8c3.9-4.2,10.4-9.3,13.7-11.8
		c3.3-2.5,7.1-4.3,10.5-5.8c3.2-1.4,6.8-2.7,11.2-2.9c4.4-0.2,7,1.3,9,2.6c1.7,1.1,1.9,2,2.2,2.3c0.6,0.5,1.1-0.5,1.1-0.5
		s1.2-1.8,1.6-2.3c0.4-0.5,1.2-0.5,1.2-0.5l18.2,0.1c1.3,0,0.4,1.5,0.4,1.5s-25.9,38.6-27.5,41c-1.6,2.3-4.2,6-5.3,7.9
		c-1.1,1.9,0.9,1.4,0.9,1.4s1.3-0.2,3.7-1.3c2.5-1.1,5.1-3.1,7.5-4.9c2.3-1.8,6.2-4.4,8.2-6.3c2-1.9,3.1-3.4,4.5-5.4
		c1.4-2.1,3.5-5.1,3.5-5.1s18.7-27.7,19.1-28.4c0.4-0.6,1.5-0.6,1.5-0.6s18.2,0,18.9,0.1c0.7,0.1,0.6,0.9,0.6,0.9s-0.8,1.6-1.3,2.3
		c-0.5,0.7-0.5,1.3,0.2,1.4c0.6,0.1,1.2-0.3,2.2-0.7c2.4-1.1,4.8-1.9,7.6-2.9c3-1,6.8-1.6,9.8-1.9c2.7-0.3,6.5,0.6,8.2,1.6
		c1.8,1,2.5,3.3,2.5,5.2c0,1.9-1,4.8-2.7,7.8c-1.6,2.8-4,6.4-6.6,10.2c-2.6,3.9-5.3,7.5-7.4,10.7c-2.1,3.1-5.1,7.6-6.2,10
		c-1.1,2.4-1.5,3.2-0.8,4.9c0.6,1.7,3.1,1.3,5,0.9c1.9-0.3,4.6-2.3,6.2-3.9c1.6-1.6,2.5-3,4.1-5.5c1.5-2.5,2.1-3.6,4.3-7
		c2.3-3.4,4.7-7,7.8-10.6c3.1-3.7,7.2-7.6,9.7-9.6c2.4-2,4.1-3,7.8-5.5c3.7-2.5,9.4-5.3,13.1-6.8c3.8-1.5,7.5-2.3,10.5-2.3
		c3,0,7.2,1.5,8.9,3.7c1.8,2.5,2.7,5.3,2.9,7.7c0.3,2.4-0.4,5.6-0.7,8c-0.2,1-0.4,2.2-0.2,2.5c0.3,0.5,1.7-0.1,1.7-0.1
		s2.2-0.7,4.2-2c2.1-1.3,4.5-3.4,6.6-5.4c2.1-2,4.9-6.3,6.3-8.3c1.4-2.1,2-3.2,2.7-4.2c0.9-1.4-0.8-1.5-0.8-1.5s-2.5-0.5-6-0.7
		c-3.5-0.3-8.9-1.8-11.9-3c-3-1.3-9.3-4.9-13.2-9.6c-3.5-4.3-5.3-7.9-5.4-12.2c-0.1-3.2-0.2-7.4,2.3-12.2c2.5-4.8,7.4-8.6,12.7-11.9
		c5.2-3.2,12.3-5.4,18.3-6.3c6.9-1,14.5-0.6,19.9,0.3c4.4,0.7,7.6,1.9,7.6,2.3c0,0.4-1.1,0.3-3.4,0.1c-2.3-0.2-6.1-0.7-10.8-0.6
		c-4.3,0.1-8.6,0.6-12.9,1.8c-4.7,1.3-8.7,3-13.3,5.6c-4.6,2.7-6.4,5-8,7.3c-1.6,2.3-3.5,6.1-3.3,11.4c0.2,5.3,3.1,8.6,5.2,11
		c2.6,2.9,6,5.2,9.5,6.6c4.4,1.8,9.2,2.8,13.4,3c4.5,0.2,6.5-0.2,6.5-0.2s4.2-5.3,6.6-7.9c2.4-2.7,3.5-4.3,6.3-7.2
		c2.8-2.9,8.7-8.5,12.7-12c4-3.5,7.9-6.4,12-9.2c4.6-3.1,10.5-6.4,14.4-8.3c4-1.9,8.8-3.2,12.9-3.2c4,0,7,1.9,8.4,4.5
		c1.5,2.9,1.2,7.7-0.1,10.7c-1.4,3-5.1,7.6-8.9,11.5c-3.8,3.9-7.4,6.8-10.6,9.2c-3.1,2.4-10.8,7-15.5,9.2
		c-4.7,2.1-12.3,4.7-15.6,5.6c-3.3,0.9-5.9,1.7-6.9,2.4c-0.9,0.6-1.6,1.8-3,3.7c-1.4,2-4.1,6.1-6.2,9.7c-2.1,3.6-4.8,8.8-7,12.6
		c-2.2,3.8-5.4,9.9-7.1,13.8c-1.6,3.8-2.4,6-2.7,7.8c-0.3,1.8,0.1,3.2,1.2,3.6c1.2,0.5,1.8,0.1,3.7-0.9c1.9-1,3.5-2.6,4.8-4
		c1.3-1.4,2.6-3.8,4.4-6.9c1.8-3,2.9-4.9,5.1-8c2.2-3,4.5-5.9,7.7-9.3c3.1-3.4,7.3-7,11.1-9.6c3.8-2.7,7.8-5.3,11.3-6.9
		c3.4-1.6,8.6-4,12.1-4.5c4-0.6,9.4,0.3,11.2,1.8c2.2,1.8,3.9,3.4,4.4,7.8c0.4,3.1,0.2,5.9-0.6,9.8c-0.7,3.2-1.6,5-2.1,6.3
		c-0.6,1.3-0.1,1.5-0.1,1.5s1,0.2,4.2-0.1c3.5-0.4,6.3-0.9,10.7-1.9c4.8-1.1,8.7-2.8,14-4.9c5.2-2.1,9-4.7,12-6.6
		c3-1.9,3.5-2.3,4.8-3.1c1.5-0.9,3.3-0.7,4.1,0.2c0.8,0.9,1.2,2.3,0.9,3.2c-0.3,0.9-1.4,2.2-3.2,3.7c-1.8,1.4-4.8,3.3-8.5,5.2
		c-3.7,2-6.3,3.1-7.4,3.7c-1.1,0.5-1.4,0.8-1.4,0.8s-4.1,4.5-6.9,7.9c-2.8,3.4-6,7.6-10.3,13.4c-4.3,5.8-9.5,14-12.4,18.7
		c-2.9,4.7-8.1,13.5-8.4,14.1c-0.4,0.5-0.9,0.4-0.9,0.4s-9.6,0.3-21.4,0.3c-11.7-0.1-27.5,0.6-38.1,1c-11.1,0.4-22.9,1.4-32.4,2.2
		c-9.5,0.8-21.8,2-30.6,3.2c-8.8,1.1-24.6,3.6-33.3,5.5c-8.6,1.8-19.8,4.6-30.2,7.6c-10.1,2.8-21.3,7.3-22.7,7.9
		c-1.4,0.5-2.2,0.2-2.2,0.2s-5.7-2.5-8.7-3.7c-3-1.3-6.2-2.6-7.2-3.5c-1-0.8,0.2-1.1,0.2-1.1s17.6-6.1,25-8
		c8.3-2.1,26.5-6.2,36.6-7.8c11-1.7,32.5-4.5,42.5-5.3c10.5-0.8,32.4-2.3,42.7-2.6c10.2-0.3,40.6-0.9,49.9-0.9
		c10.1,0,25-0.1,26.1-0.1c1.1-0.1,1.1-0.6,1.1-0.6l1.1-1.6c0,0,7-11.5,10.4-16.7c3.4-5.2,8.1-11.4,11.6-15.7
		c3.4-4.3,7.1-9.1,7.1-9.1s0.8-1.1,0.5-1.5c-0.2-0.4-2.1-0.1-2.1-0.1s-8,2.2-12.1,3c-4.1,0.8-7.5,1.1-8.7,1.3l-1.3,0.2
		c0,0-3.4,4-6,6.8c-2.6,2.8-6.9,6.6-10.9,9.9c-4,3.3-8.7,6.1-12.2,8.1c-3.6,2.1-11.5,5.4-13.8,5.9c-2.8,0.5-6,0.6-9.1,0.1
		c-2.5-0.4-5.7-2.7-6.7-4.3c-1.1-1.7-1.6-3.3-1.7-4.7c-0.1-1.2-0.3-1.7-0.8-1.9c-0.3-0.2-0.9,0.4-0.9,0.4s-1.7,1.4-3.4,2.6
		c-1.7,1.3-5.2,3.8-8.2,5.2c-3.1,1.4-7.2,3.1-10.6,3.4c-3.4,0.3-6.3,0.3-8.5-1.3c-2-1.4-2.4-4.1-2.3-6.3c0.1-2.2,1.4-6,1.4-6
		s9.7-21,10.2-21.9c0.5-0.9,0.6-1.4,0.1-1.7c-0.5-0.3-1.7,0.4-3.3,1c-1.6,0.6-3.2,1-5.2,2.2c-1.4,0.8-2.1,2.4-3.7,4.6
		c-1.7,2.3-6.1,7.4-9.2,10.2c-3.3,3-9.3,7.7-14.8,11c-5.5,3.3-11.7,5.8-14.5,6.8c-2.9,1-7,1.6-9.4,1.4c-2.3-0.2-5.5-1.5-7.3-3
		c-1.8-1.6-2.9-4-3.3-5.6c-0.3-1.2-0.2-1.8-0.7-2.2c-0.4-0.3-1.5,0.5-1.5,0.5s-2.6,1.7-5.2,3.2c-2.6,1.5-5.4,3.1-7.6,3.9
		c-2.2,0.8-8.1,2.6-10.2,3.1c-2.1,0.5-6.2,0.9-8.8,0.3c-2.6-0.6-5-2.6-5.3-5.4c-0.3-2.9,1-6.4,1.9-8.2c0.9-1.8,3.2-5,3.2-5
		s18.3-26.7,19.4-28.4c1.1-1.7,1.7-3.6,1.2-5.1c-0.5-1.5-2-1.8-3.8-1.5c-2,0.2-5.2,1.6-7.6,3.4c-2.4,1.8-3.7,3.1-5.7,5.5
		c-2,2.4-6.2,8.5-6.2,8.5s-23.4,33.7-23.9,34.5c-0.5,0.8-1.3,0.8-1.3,0.8s-18,0-19.2-0.1c-1.2-0.1-0.4-1.2-0.4-1.2s3.1-4.7,3.9-5.9
		c0.8-1.2,0.8-1.3,0.5-1.6c-0.2-0.2-1.3,0.2-1.3,0.2s-4.6,2.4-7.6,3.7c-3,1.3-4.8,2-7.8,3c-3,1-3.2,2.1-5.5,5.1
		c-2.4,2.9-5.7,6.8-9.8,11.8c-4.1,5-5.4,6.4-10.1,11.2c-4.7,4.7-9.4,9-15.6,14.2c-5.8,4.8-8.9,7-12.4,9.4c-3.5,2.4-9.7,5.5-13.3,6.7
		c-3.6,1.1-8.6,1.5-10.4,0.7c-1.5-0.7-3.5-2.5-3.4-6.7c0.1-4.1,2.5-8.3,4.2-11.3c1.7-3.1,7.6-10.2,10.6-13.1c3-3,10.9-9.2,15.5-12.2
		c4.6-3,13.1-7.2,17.1-8.7c4.1-1.5,8.3-4,9.6-5.1c1-0.8,1.1-1.3,0.9-1.6c-0.1-0.2-0.9,0-0.9,0s-2.1,0.9-3.9,1.5c-1.9,0.6-4,1.4-8,1
		c-4-0.4-7.2-2.2-8.9-4.3c-1.7-2.1-2.2-6.5-2.2-7.8c0-1.4,0-2.3-0.4-2.6c-0.3-0.4-1.7,0.8-3.3,1.9c-1.6,1.2-5.7,4-9.3,6.1
		c-3.6,2.1-9.5,5.3-12.7,6.3c-3.2,1-7.6,0.4-9.7-0.8c-2.2-1.3-2.8-2.8-3.2-5.3c-0.2-1.2-0.1-2.2-0.5-2.6c-0.3-0.3-0.8-0.1-1.5,0.3
		c-1.2,0.8-3.2,2.4-7.6,4.7c-4.3,2.3-7,3.5-10.4,4.2c-3.3,0.7-7,0.2-10-1.2c-3-1.5-4.1-4.9-4.3-6.5c-0.3-1.9,0.2-5.3-0.4-5.9
		c-0.4-0.4-1.4,0.3-2.5,1.1c-1.1,0.7-3.5,2.5-6.8,4.6c-3.3,2-6.8,4-10.4,5.4c-3.6,1.4-9.2,3.2-14.2,2.7c-5-0.5-6.4-3.6-6.8-6.8
		c-0.4-3.2,2.9-8.8,2.9-8.8s19.9-30.3,21.2-32.4c1.3-2.1,1.3-3.2,1-4.9c-0.3-1.7-1.9-2.2-4.2-2.2c-2.3,0.1-5.8,2.3-8.2,4.2
		c-2.4,1.9-6.1,7-6.1,7s-48,71-48.4,71.6c-0.5,0.7-1.1,0.6-1.1,0.6s-18.2-0.1-19.4-0.1c-1.4-0.1-0.3-1.3-0.3-1.3
		s21.4-31.9,22.3-33.1c0.9-1.3,1.2-1.6,0.6-2.1c-0.5-0.4-3.2,1.3-3.2,1.3s-6.2,3.3-9.2,4.3c-3,1-7.3,2.5-9.6,2.8
		c-2.3,0.4-7.2,0.6-10-2.2c-2.9-2.8-1.2-7.4-0.6-9.4c0.6-2.1,3.4-5.8,3.4-5.8l16.7-24.9c0,0,2.3-2.6,3-4.2c0.7-1.6,1-4.9-1.1-6.2
		c-2.2-1.4-5.7,0.4-7.8,1.7c-2.1,1.3-4.7,3.7-4.7,3.7s-30.4,44-31.3,45c-0.6,0.6-1,0.6-1,0.6s-17.7-0.2-19-0.1c-1.4,0.1-0.6-1-0.6-1
		l24.1-36.7c0,0,3.5-4.5,5.2-7.5c1.6-3,2.7-5.1,0.5-6.7c-2.2-1.6-6.4,0.5-9,2.3c-1.9,1.4-4.3,4.1-4.3,4.1S269.7,145,269,146
		c-0.7,1-1.5,0.8-1.5,0.8s-17.3,0.1-18.4,0.1c-1.1,0-0.3-1.6-0.3-1.6s2.4-4.3,3-5.1c0.6-0.8,0.9-1.2,0.4-1.6
		c-0.5-0.4-2.2,1.2-4.2,2.5c-2,1.3-4.8,3.1-7.7,4.3c-2.9,1.1-5.5,2.3-8,2.8c-2.5,0.5-5.8-0.4-7.7-1.4c-1.9-1-3-3.7-3.3-5.2
		c-0.3-1.5,0.3-2.8-0.5-3.2c-0.8-0.4-1.6,0.9-3.2,2.1c-1.6,1.2-3.8,2.6-7.3,4.4c-3.5,1.9-8.3,3.6-12.9,3.3c-4.6-0.3-6.9-2.9-8.3-5
		c-1.6-2.4-2.2-6.9-2.2-9.1c0-1.8,0.3-3.2-0.2-3.4c-0.6-0.3-2.2,1-3.9,2.1c-1.7,1.2-4.8,3.4-9.9,6.2c-5.1,2.8-10.3,5.3-18.1,7.5
		c-7.8,2.2-14.6,1.4-19.2-2.1c-4.6-3.4-4.8-11.1-4.2-17.6c0.6-6.6,5.1-16.4,7.7-21.6c2.5-5.2,10.3-16.7,10.7-17.3
		c0.4-0.5-0.2-0.9-0.2-0.9s-31.3,0.8-38.3,0.9c-7,0.1-31.6-0.2-40.9-0.3C61.2,87.6,39.1,86,38.1,86c-1.4-0.1-0.2-1-0.2-1
		s8.4-3.4,12.3-4.8c4-1.4,9.6-4,10.4-4.3c0.7-0.4,1.2-0.3,1.6-0.2c3.2,0.7,16.4,3.5,26.4,4.3c11.5,1,17.6,1.5,30.9,1.6
		c13.3,0.1,20.3-0.1,26.1-0.2c5.7-0.1,9.8-0.4,9.8-0.4s5.2-6.2,9.5-10.5c4.3-4.3,14.5-15,23.1-21.4c9.6-7.1,21.6-14.8,33.1-18.7
		c11.5-3.9,35.8-7.8,40.4-1.3c5.2,7.2-4.5,16.8-8.5,20.9c-4.3,4.4-17.7,15.4-29.2,20.5c-10.8,4.8-25.6,9.4-34.5,11.5
		c-9,2.1-16.4,3.2-16.4,3.2S171.3,86.5,170,88.4z"/>
</g>
</svg>
