<?xml version="1.0" encoding="utf-8"?>
<!-- Generator: Adobe Illustrator 22.0.1, SVG Export Plug-In . SVG Version: 6.00 Build 0)  -->
<svg version="1.1" id="Layer_1" xmlns="http://www.w3.org/2000/svg" xmlns:xlink="http://www.w3.org/1999/xlink" x="0px" y="0px"
	 viewBox="0 0 280 120" style="enable-background:new 0 0 280 120;" xml:space="preserve">
<style type="text/css">
	.st0{fill:#28292B;}
	.st1{fill:#C02A1B;}
</style>
<g>
	<g>
		<g>
			<g>
				<path class="st0" d="M250.3,87h3.7l-0.2,0.5h-1.4l-1.1,2.7h-0.8l1.1-2.7h-1.5L250.3,87z"/>
				<path class="st0" d="M254.4,87h1.1l0.2,2.3l0,0l2.3-2.3h1.1l-1.3,3.1H257l1.1-2.5l0,0l-2.3,2.5h-0.6l-0.3-2.5l0,0l-1,2.5h-0.8
					L254.4,87z"/>
			</g>
			<g>
				<path class="st0" d="M112,87c1.1,0,2.3,0.4,2.6,1.7c0.1,0.7,0,1.4-0.8,2.6c-0.3,0.5-0.8,1.1-1.5,1.7c0,0-3.8,3.8-10.3,3.9h-22
					l4.7-2.9h16.9c2.4,0,4.1-0.6,5.5-2c0.3-0.3,1.8-1.8,0.3-1.8H87.5c-1.3,0-5.4,0.5-8.6,3.9l-8.3,9.5H64l9.8-11.3
					c3.1-3.6,7.5-5.2,15.5-5.2L112,87L112,87z"/>
				<g>
					<path class="st0" d="M202,90.1l4.8-3.1h-30c-11.5,0-14.3,3.9-15.8,5.7l-4.3,4.9c-0.9,1.1-1.3,2.2-1,3.1
						c0.5,1.8,3.3,2.8,7.3,2.8H190l4.8-3.1h-30c-3.8,0-2-2.3-2-2.3s0,0,3.6-4.2c2.8-3.3,7-3.9,8.7-3.9H202z"/>
					<polygon class="st0" points="167.3,96.8 191.5,96.8 196,93.8 172,93.8 					"/>
				</g>
				<g>
					<path class="st0" d="M157.5,90.1l4.8-3.1h-30c-11.5,0-14.3,3.9-15.8,5.7l-4.3,4.9c-0.9,1.1-1.3,2.2-1,3.1
						c0.5,1.8,3.3,2.8,7.3,2.8h26.9l4.8-3.1h-30c-3.8,0-1.9-2.3-1.9-2.3s0,0,3.6-4.2c2.8-3.3,7-3.9,8.7-3.9H157.5z"/>
					<polygon class="st0" points="122.8,96.8 146.9,96.8 151.5,93.8 127.5,93.8 					"/>
				</g>
				<path class="st0" d="M248,89.2c-0.3-1.3-2.3-2.2-8.1-2.2H212l-14.2,16.5h30.7c5.8,0,10.4-1.8,13.2-5.2l5.3-6.2
					C247.9,91.2,248.2,90.1,248,89.2z M228.5,100.5H207l8.8-10.3c0,0,17.4,0,21.7,0s3,2.1,1.8,3.4s-2.5,2.8-3.4,3.9
					C234.1,99.5,231.7,100.5,228.5,100.5z"/>
				<g>
					<path class="st0" d="M43.9,90.1h25l4.9-3.1H44c-6.8,0-10.8,2.8-12,3.9c-1.3,1.1-2.4,2.5-2.4,3.8s0.9,2.1,3,2.1h24.7
						c0.3,0,1.6-0.1,0.7,1.1c-1.8,2.1-3.7,2.4-6.8,2.4H26.3l-5.3,3.3h30.5c6.7,0,11-3.9,11.1-4c1.6-1.5,2.4-2.7,2.4-3.8
						s-0.7-2.3-3.3-2.3H37c0,0-1.4,0.1-0.5-1C38.3,90.4,41,90.1,43.9,90.1z"/>
				</g>
			</g>
		</g>
	</g>
	<g>
		<path class="st1" d="M235.4,64.8L217.2,77H72.9c0,0,14.6-16.4,18.9-21.6c4.3-4.9,17.3-15.5,34.7-15.5c0,0,77.6,0,81.6,0
			c8.5,0,13.7-0.6,19.2-5.8c0.9-0.9,6.7-6.4,0.9-6.4c-5.8,0-115.9,0-115.9,0l17.7-11.3h115.9c4,0,8.5,1.5,9.4,6.1
			c0.3,2.4,0,5.2-3,9.1c-1.2,1.8-3,4-5.5,6.1c0,0-13.7,13.7-37.7,14c0,0-74,0-80.3,0c-6.4,0-13.1,3-17,7.9c-4,4.6-4,4.6-4,4.6
			L235.4,64.8z"/>
		<polygon class="st1" points="68.7,16.7 51,28 79,28 36.7,77 60.4,77 113.1,16.7 		"/>
	</g>
</g>
</svg>
