<?xml version="1.0" encoding="utf-8"?>
<!-- Generator: Adobe Illustrator 22.0.1, SVG Export Plug-In . SVG Version: 6.00 Build 0)  -->
<svg version="1.1" id="Layer_2" xmlns="http://www.w3.org/2000/svg" xmlns:xlink="http://www.w3.org/1999/xlink" x="0px" y="0px"
	 viewBox="0 0 720 100" style="enable-background:new 0 0 720 100;" xml:space="preserve">
<style type="text/css">
	.st0{fill:#AAABB1;}
	.st1{fill:#C02A1B;}
</style>
<g>
	<path class="st0" d="M457,37.9c-0.9-3.2-5.6-5.9-15.4-5.9h-52.5c-11.3,0-21.2,5-25,9.2c-3.5,4-9,10.4-10.9,12.5
		c-1.8,2.1-2.6,4.5-2.1,6.4c1,3.6,7.7,5.9,16,5.9h52.6c6.3,0,13.2-1.8,18.7-5c2-1.1,4.7-3,7-5.6c2.3-2.7,8.3-9.7,9.8-11.5
		C456.7,42.1,457.4,39.7,457,37.9z M443,42.4c-2.3,2.8-10.4,12.1-10.7,12.4c-2.6,2.8-7.6,4.8-11.9,4.8l-50.7,0c-8,0-4-4.6-4-4.6
		c1.6-2,7.9-9.2,9.9-11.4c2.6-2.9,9.3-5.3,14.5-5.3l47,0C444.8,38.3,443.7,41.3,443,42.4z"/>
	<path class="st0" d="M254.1,38.4l9.9-6.4h-75.3c-23.7,0-29.5,8.1-32.5,11.6c-2.9,3.3-8.7,10.1-8.7,10.1c-1.9,2.2-2.6,4.5-2.1,6.4
		c1,3.6,6.7,5.9,15,5.9l69,0l9.7-6.3l-75.3,0c-8,0-4.1-4.5-4-4.6c0.1-0.1,1.7-1.9,7.4-8.6c5.8-6.6,14.4-8.1,17.8-8.1H254.1z"/>
	<path class="st0" d="M354,38.4l10-6.4h-67.6c-23.7,0-29.5,8.1-32.5,11.6c-2.9,3.3-8.8,10.1-8.8,10.1c-1.9,2.2-2.6,4.5-2.1,6.4
		c1,3.6,6.7,5.9,15,5.9l62.4,0l9.7-6.3c0,0-67.2,0-68.7,0c-7.8-0.6-4-4.6-4-4.6c0.1-0.1,1.7-1.9,7.4-8.6c5.8-6.6,14.4-8.1,17.8-8.1
		H354z"/>
	<path class="st0" d="M659.3,36.4c-0.8-2.6-4.7-4.4-16.6-4.4l-70.9,0l-29.2,34h76.7c11.9,0,21.4-3.6,27.2-10.5l11-12.6
		C659.2,40.5,659.8,38.3,659.3,36.4z M619.2,59.7h-57.8l18.2-21.3c0,0,49.5,0,58.3,0c8.8,0,6.1,4.4,3.7,7.1c-2.4,2.7-5.2,5.9-7.1,8
		C630.9,57.7,625.9,59.7,619.2,59.7z"/>
	<g>
		<path class="st0" d="M95.5,32C71.9,32,66.1,39.8,63,43.6L43.5,66h13.5c0,0,15-17.3,16.9-19.5c4.6-5.3,12.1-8.1,17.8-8.1l56.6,0
			l9.9-6.4L95.5,32z"/>
	</g>
	<g>
		<path class="st0" d="M499.5,32c-23.5,0-29.3,7.8-32.5,11.6L447.6,66h13.5c0,0,15-17.3,16.9-19.5c4.6-5.3,12.1-8.1,17.8-8.1l56.6,0
			l9.9-6.4L499.5,32z"/>
	</g>
</g>
<polygon class="st1" points="130.7,52.1 232.1,52.1 241.5,46 140.3,46 "/>
<path class="st0" d="M663.6,32h7.5l-0.4,1h-2.9l-2.3,5.4h-1.6l2.3-5.4h-3L663.6,32z"/>
<path class="st0" d="M672.1,32h2.2l0.4,4.9h0l4.6-4.9h2.3l-2.7,6.4h-1.5l2.2-5.1h0l-4.8,5.1h-1.2l-0.5-5.1h0l-2,5.1h-1.5L672.1,32z"
	/>
</svg>
